<svg xmlns="http://www.w3.org/2000/svg" xmlns:xlink="http://www.w3.org/1999/xlink" width="14" height="12" viewBox="0 0 14 12"><defs><path id="h1noa" d="M899.612 1273.977v8.082c0 .47-.381.851-.851.851h-11.91a.852.852 0 0 1-.851-.851v-8.082c0-.47.381-.85.85-.85h2.553v-1.277c0-.47.381-.85.85-.85h5.105c.47 0 .85.38.85.85v1.276h2.553c.47 0 .85.382.85.851zm-8.933-.85h4.254v-.851h-4.254zm7.657 5.104h-4.254v.425h-2.552v-.425h-4.254v3.403h11.06zm0-3.829h-11.06v2.553h4.254v-.426h2.552v.426h4.254z"/></defs><g><g transform="translate(-886 -1271)"><use fill="#5a5a5a" xlink:href="#h1noa"/></g></g></svg>