<svg xmlns="http://www.w3.org/2000/svg" xmlns:xlink="http://www.w3.org/1999/xlink" width="31" height="31" viewBox="0 0 31 31"><defs><path id="2l63a" d="M1275.5 6154.25c0 8.423-6.827 15.25-15.25 15.25s-15.25-6.827-15.25-15.25 6.827-15.25 15.25-15.25 15.25 6.827 15.25 15.25zm-2.383 0c0-7.107-5.76-12.867-12.867-12.867-7.107 0-12.867 5.76-12.867 12.867 0 7.106 5.76 12.867 12.867 12.867 7.107 0 12.867-5.76 12.867-12.867zm-20.486-3.82h2.859v11.438h-2.86zm15.238 3.533v7.918l-2.848-.013v-6.672c-.04-.224-.694-1.827-1.906-1.906-2.256-.298-2.86 1.662-2.86 1.906v6.672h-2.859v-11.437h2.86v1.906c.16-.08 1.364-1.865 3.812-1.906 3.13.04 3.7 2.39 3.801 3.532zm-12.38-5.915a1.43 1.43 0 1 1-2.858 0 1.43 1.43 0 0 1 2.859 0z"/></defs><g><g transform="translate(-1245 -6139)"><use fill="#b2b2b2" xlink:href="#2l63a"/></g></g></svg>