<svg xmlns="http://www.w3.org/2000/svg" xmlns:xlink="http://www.w3.org/1999/xlink" width="55" height="55" viewBox="0 0 55 55"><defs><path id="75sza" d="M325 2604.812c0 .933-.755 1.688-1.688 1.688h-23.625a1.687 1.687 0 1 1 0-3.375h3.375a3.377 3.377 0 0 0 3.375-3.375v-5.063h10.125v5.063a3.377 3.377 0 0 0 3.375 3.375h3.375c.933 0 1.688.756 1.688 1.687zm13.5-49.148v32.484c0 1.747-1.323 3.164-2.953 3.164h-48.094c-1.63 0-2.953-1.417-2.953-3.164v-32.484c0-1.747 1.323-3.165 2.953-3.165h48.094c1.63 0 2.953 1.418 2.953 3.165zm-3.375.21h-47.25v32.063h47.25z"/></defs><g><g transform="translate(-284 -2552)"><use fill="#222" xlink:href="#75sza"/></g></g></svg>